<?xml version="1.0" encoding="UTF-8"?>
<svg version="1.1" xmlns="http://www.w3.org/2000/svg" width="1024" height="1024">
<path d="M0 0 C337.92 0 675.84 0 1024 0 C1024 337.92 1024 675.84 1024 1024 C686.08 1024 348.16 1024 0 1024 C0 686.08 0 348.16 0 0 Z " fill="#FDFCFB" transform="translate(0,0)"/>
<path d="M0 0 C15.52689991 -0.15075299 31.05303143 -0.23092835 46.58060646 -0.23059464 C53.79309466 -0.23202634 61.00420127 -0.255221 68.21630859 -0.33251953 C74.51393566 -0.3999584 80.81007323 -0.42364341 87.10803258 -0.39809489 C90.43389554 -0.38604428 93.75421614 -0.40016934 97.08003616 -0.4539566 C117.70365602 -0.76691199 132.00184301 3.4546111 148.23379517 16.34469604 C151.50699642 18.8354089 153.75106988 19.75347718 157.95703125 19.77294922 C159.60783691 19.80230057 159.60783691 19.80230057 161.29199219 19.83224487 C163.03464355 19.81860397 163.03464355 19.81860397 164.8125 19.8046875 C166.62669434 19.82524704 166.62669434 19.82524704 168.47753906 19.84622192 C172.31874056 19.8834407 176.15864416 19.87981192 180 19.875 C182.61330139 19.89313219 185.22658569 19.9139365 187.83984375 19.9375 C194.22668935 19.98927545 200.61296373 20.00756985 207 20 C202.461527 52.91623841 202.461527 52.91623841 187.6875 64.625 C184.92628476 66.62789407 183.48630665 67.12842334 180 68 C181.32 63.38 182.64 58.76 184 54 C178.27386391 53.94459323 172.55093713 53.94293002 166.82470703 53.98779297 C164.88330755 53.99582723 162.94179322 53.99001324 161.00048828 53.96923828 C147.52146185 53.83715912 139.16878464 55.30434144 128 63 C127.34 63 126.68 63 126 63 C126 63.66 126 64.32 126 65 C126.54785156 65.13970215 127.09570312 65.2794043 127.66015625 65.42333984 C135.80705887 67.67036156 143.34133705 71.12009139 151 74.625 C152.33437749 75.22973612 153.66901141 75.83390674 155.00390625 76.4375 C164.25982378 80.62991189 164.25982378 80.62991189 167 82 C169.2072923 82.07092842 171.41667452 82.08415025 173.625 82.0625 C175.40777344 82.04896484 175.40777344 82.04896484 177.2265625 82.03515625 C178.14179687 82.02355469 179.05703125 82.01195312 180 82 C175.79215252 86.98517503 171.47861984 91.81620142 166.9375 96.5 C166.0393457 97.46679688 166.0393457 97.46679688 165.12304688 98.453125 C160.72548489 102.96146894 160.72548489 102.96146894 157.42578125 103.13671875 C154.49475507 101.76324271 151.9281566 100.13378525 149.25 98.3125 C144.21177112 95.05510027 139.16138498 92.66821379 133.5 90.6875 C132.52401855 90.34295776 132.52401855 90.34295776 131.52832031 89.99145508 C129.36620284 89.26907524 127.19140079 88.62800969 125 88 C123.65010986 87.58415649 123.65010986 87.58415649 122.27294922 87.15991211 C115.56776826 85.32136026 109.4053005 84.82530538 102.5078125 84.98046875 C101.67032974 84.99872208 100.83284698 85.0169754 99.96998596 85.03578186 C99.11919968 85.05442795 98.26841339 85.07307404 97.3918457 85.09228516 C71.62642416 85.62929654 71.62642416 85.62929654 64.09521484 79.07543945 C61.93887483 76.71622275 59.98741586 74.33368147 58.30981445 71.60986328 C55.62518336 68.310244 52.90860996 67.10315121 48.72045898 66.62768555 C47.49141846 66.6306665 46.26237793 66.63364746 44.99609375 66.63671875 C44.32434113 66.63531387 43.6525885 66.633909 42.96047974 66.63246155 C40.78569505 66.63382312 38.61208606 66.65895343 36.4375 66.6875 C35.69756805 66.69309937 34.95763611 66.69869873 34.19528198 66.70446777 C3.84403707 66.72429805 3.84403707 66.72429805 -21.71875 81.5859375 C-31.07392347 91.37068526 -32.46387668 104.14037661 -32.27734375 116.95703125 C-31.66106286 133.57821878 -20.04115386 144.39652757 -8.94555664 155.37915039 C-7.61549181 156.7067283 -6.28609798 158.03497874 -4.95732117 159.36384583 C-2.10690717 162.21156539 0.7481763 165.05448665 3.60706902 167.89369392 C8.1325713 172.38803902 12.64755099 176.89285818 17.16127014 181.39903259 C24.3045061 188.52780609 31.45492842 195.64932237 38.60835415 202.76786941 C51.41358459 215.51112066 64.20665526 228.26657363 76.99692065 241.02484316 C81.48116397 245.4972953 85.96856858 249.96654408 90.45868862 254.43309605 C93.2564306 257.21695269 96.05214015 260.0028442 98.8474102 262.78918266 C100.13844832 264.07517767 101.43036655 265.36028986 102.72325516 266.64442444 C109.03871432 272.91782806 115.27204352 279.17542594 121 286 C122.24716797 287.42505859 122.24716797 287.42505859 123.51953125 288.87890625 C150.7744532 320.77691542 165.56076619 360.84749956 163 403 C159.76263917 437.33716222 146.63519541 466.90841051 123 492 C122.3503125 492.72574219 121.700625 493.45148438 121.03125 494.19921875 C114.00206727 501.72855487 105.54051189 507.33545971 97 513 C95.989375 513.67289063 94.97875 514.34578125 93.9375 515.0390625 C83.91201298 521.27651039 71.68428848 526.8975212 60 529 C64.66440783 518.97538869 70.40993047 509.52556062 76 500 C71.90630833 504.65383396 68.10473457 509.44321899 64.4375 514.4375 C58.67905147 522.1970663 52.64904647 529.70718557 46.50878906 537.16650391 C45.06214092 538.92448572 43.61994712 540.68600113 42.1796875 542.44921875 C40.12206941 544.96802711 38.06180586 547.48462071 36 550 C39.45553596 558.48986962 43.17238598 566.82624758 47.0625 575.125 C47.91301752 576.94780111 48.76352793 578.77060559 49.61357117 580.59362793 C50.19492675 581.8402587 50.77656209 583.08675904 51.35847473 584.33312988 C54.53059595 591.12916981 57.67246636 597.93908929 60.8125 604.75 C61.59475952 606.44600342 61.59475952 606.44600342 62.39282227 608.17626953 C63.59551481 610.78404156 64.79792134 613.39194495 66 616 C67.33792603 615.96688721 67.33792603 615.96688721 68.70288086 615.93310547 C72.05393455 615.87438754 75.39903275 615.8613414 78.75024414 615.87792969 C80.19243684 615.87599796 81.63472742 615.85653672 83.07641602 615.81835938 C95.00865812 615.52057032 95.00865812 615.52057032 99.83203125 619.10400391 C102.10338807 621.62956781 104.06630143 624.21060428 106 627 C106.91909892 628.05257183 107.85549465 629.09073274 108.8203125 630.1015625 C122.58801498 645.17602996 122.58801498 645.17602996 124 648 C95.62 648 67.24 648 38 648 C27.69395568 629.67814344 27.69395568 629.67814344 22.97753906 620.3840332 C20.82279681 616.14751 18.65378877 611.9184261 16.48046875 607.69140625 C16.10749664 606.96590073 15.73452454 606.2403952 15.35025024 605.49290466 C11.53139521 598.07402251 7.6631608 590.68205519 3.75 583.3125 C3.42322266 582.69575409 3.09644531 582.07900818 2.75976562 581.443573 C-2.25247561 572.00467201 -7.54732789 562.75757264 -13.28027344 553.73364258 C-13.78719727 552.91275146 -14.29412109 552.09186035 -14.81640625 551.24609375 C-15.26443604 550.54154053 -15.71246582 549.8369873 -16.17407227 549.11108398 C-17.25668176 546.34391747 -16.85775892 544.81009528 -16 542 C-14.78590085 539.78809014 -13.5391328 537.68624466 -12.1875 535.5625 C-8.03270244 528.85449421 -4.19758473 521.99881233 -0.4375 515.0625 C0.09915283 514.07258057 0.63580566 513.08266113 1.1887207 512.06274414 C2.46165359 509.70983472 3.73224133 507.35570029 5 505 C2.19928898 508.69379339 -0.57979773 512.375375 -3.16796875 516.22265625 C-8.32856722 523.47943592 -8.32856722 523.47943592 -12.3203125 524.72265625 C-15.44543042 524.60019865 -18.00156273 523.91647737 -21 523 C-21.70560059 522.79487793 -22.41120117 522.58975586 -23.13818359 522.37841797 C-39.94882406 517.39164678 -54.83851783 509.42664503 -69.5 499.9375 C-88.06920576 487.94082079 -107.31903258 480.83155028 -129 477 C-127 464 -127 464 -125 451 C-125.25523437 451.78310547 -125.25523437 451.78310547 -125.515625 452.58203125 C-129.46934317 464.59039866 -133.94314353 475.89987088 -140 487 C-140.56460937 488.05574219 -141.12921875 489.11148437 -141.7109375 490.19921875 C-148.75767384 502.85356922 -158.06936522 513.55891203 -168 524 C-168.87011719 524.94939453 -168.87011719 524.94939453 -169.7578125 525.91796875 C-179.85581333 536.59952239 -192.64339556 544.66040116 -204.88867188 552.61889648 C-205.58541016 553.07466064 -206.28214844 553.5304248 -207 554 C-208.50445679 554.81815186 -208.50445679 554.81815186 -210.03930664 555.65283203 C-213.92267564 558.73147552 -214.88085771 561.57932991 -216.40234375 566.18359375 C-216.6860936 566.98792847 -216.96984344 567.79226318 -217.26219177 568.62097168 C-218.17364934 571.22010694 -219.05585125 573.82812004 -219.9375 576.4375 C-220.55447057 578.2155096 -221.17312561 579.99293557 -221.79345703 581.76977539 C-223.55576736 586.83755308 -225.28157433 591.91720706 -227 597 C-227.44095665 598.29697256 -227.88217323 599.59385679 -228.32373047 600.890625 C-230.25661362 606.58092712 -232.15583955 612.28032943 -234 618 C-233.23034912 617.91621094 -232.46069824 617.83242188 -231.66772461 617.74609375 C-208.14385354 615.52297801 -208.14385354 615.52297801 -201.046875 621.28125 C-197.81693268 624.5301442 -195.09623205 628.08363741 -192.51708984 631.86328125 C-190.45815988 634.76314527 -188.10729688 637.34599015 -185.7043457 639.96289062 C-183.59626546 642.48256138 -181.8223183 645.26652254 -180 648 C-212.34 648 -244.68 648 -278 648 C-269.94104763 616.91546942 -269.94104763 616.91546942 -266.5546875 604.7421875 C-266.17295027 603.3642297 -265.79137356 601.98622743 -265.40994263 600.60818481 C-264.62673521 597.78039447 -263.84207496 594.95301345 -263.05615234 592.12597656 C-262.26349845 589.27454 -261.4724835 586.42265769 -260.68310547 583.5703125 C-258.78869849 576.72509559 -256.88816084 569.88178671 -254.96728516 563.04394531 C-253.78443226 558.83214988 -252.62645578 554.61642945 -251.51318359 550.38574219 C-251.09741022 548.85349405 -250.68156584 547.32126518 -250.265625 545.7890625 C-249.94110352 544.5510791 -249.61658203 543.3130957 -249.28222656 542.03759766 C-246.88817394 536.36608152 -242.11830037 533.99689956 -237 531 C-223.57315592 521.16963202 -215.84765337 509.87078947 -209 495 C-210.22589844 496.46373047 -210.22589844 496.46373047 -211.4765625 497.95703125 C-222.44794908 510.73558303 -235.65981145 525.58463132 -251.10327148 533.01147461 C-254.53300288 534.73760023 -256.52671473 536.02778852 -258.23925781 539.5456543 C-259.24844612 542.6549421 -260.06329035 545.75574198 -260.8125 548.9375 C-264.57725341 563.73840996 -264.57725341 563.73840996 -267 567 C-269.63073877 568.50584481 -272.34663343 569.34986864 -275.25 570.1875 C-276.05993408 570.4345166 -276.86986816 570.6815332 -277.7043457 570.93603516 C-280.12823722 571.65699238 -282.56019156 572.33515604 -285 573 C-286.22589844 573.34417969 -287.45179688 573.68835938 -288.71484375 574.04296875 C-314.63560818 580.25345562 -343.08159269 575.17613833 -365.9375 561.75 C-373.09043042 557.34336884 -379.1080525 551.95295879 -385 546 C-385.72703125 545.29488281 -386.4540625 544.58976563 -387.203125 543.86328125 C-405.32466745 525.13530923 -409.67003003 500.17037198 -409.3046875 475.16015625 C-408.42350222 447.16977905 -393.82143475 423.06483172 -374.5703125 403.53515625 C-364.17906065 393.86114569 -352.25443653 385.83637167 -340.625 377.75 C-337.41198112 375.50661188 -334.20312674 373.25749005 -331 371 C-330.41331543 370.58733887 -329.82663086 370.17467773 -329.22216797 369.74951172 C-323.2468686 365.48848421 -318.146289 361.23698451 -316 354 C-314.9836255 346.02466497 -315.06021717 338.61319461 -320 332 C-327.30445526 323.5422097 -335.49950322 321.2162607 -346.23046875 319.66796875 C-347.01141907 319.55102158 -347.79236938 319.4340744 -348.59698486 319.31358337 C-350.26498217 319.0638167 -351.93325466 318.81588192 -353.60177612 318.56964111 C-370.79702939 316.02837471 -387.91202787 313.18542205 -405 310 C-401.6541307 307.12971763 -398.07808136 305.77311002 -393.953125 304.40625 C-393.26426208 304.17345337 -392.57539917 303.94065674 -391.86566162 303.70080566 C-390.40438672 303.2096658 -388.94180327 302.72240444 -387.47802734 302.23876953 C-385.29448009 301.51474871 -383.11797912 300.77202598 -380.94140625 300.02734375 C-367.88167374 295.62986325 -354.81709248 292.39528322 -340.9375 292.625 C-340.00341309 292.63660156 -339.06932617 292.64820313 -338.10693359 292.66015625 C-320.29528421 293.07701812 -303.97887593 298.09150537 -291.04296875 310.7890625 C-278.25962574 324.62342607 -274.21723784 340.73619224 -274.71875 359.21875 C-275.51668472 376.21475947 -283.39880194 388.31581769 -295 400 C-295.70511719 400.7425 -296.41023438 401.485 -297.13671875 402.25 C-302.04023809 407.34249879 -307.43967724 411.65059197 -313 416 C-329.85123053 429.50027053 -345.88902653 443.03727911 -351 465 C-352.13775435 477.85927014 -350.30623908 488.31251533 -342.69140625 499 C-336.97847207 505.75524781 -327.89145728 511.08805566 -319 512 C-304.31026268 513.03085876 -292.8586245 506.59889903 -281.8359375 497.5234375 C-272.04576347 488.81207053 -262.95986716 479.4159393 -255 469 C-254.14003418 467.88214111 -254.14003418 467.88214111 -253.26269531 466.74169922 C-247.33440259 459.02955371 -241.42412478 451.30291686 -235.65234375 443.47265625 C-230.46794523 436.44664781 -225.21385709 429.75621502 -219.23046875 423.3828125 C-217.24711076 421.26398873 -215.3676006 419.09522449 -213.5 416.875 C-201.30406432 402.99299027 -185.52376687 392.40600734 -168.77685547 384.80664062 C-167.18662493 384.08472228 -165.6098573 383.3333176 -164.03515625 382.578125 C-123.13102466 363.99055328 -79.74446278 372.69244313 -39.51464844 387.74783325 C-37.25494215 388.59957918 -35.00008531 389.46309464 -32.74609375 390.32983398 C-14.94346224 397.3275952 -14.94346224 397.3275952 3.875 399.4375 C4.58696533 399.42356201 5.29893066 399.40962402 6.0324707 399.39526367 C14.59299403 399.09480858 20.96445855 397.31626431 27 391 C32.91512744 381.48271161 33.20618854 371.38683921 30.75 360.58984375 C27.02448237 347.7251657 20.53097078 336.34898933 11.39453125 326.62109375 C-9.43509709 303.82063598 -16.54080136 279.40505418 -16 249 C-13.05643682 250.32827868 -10.9752438 251.77394437 -8.69429016 254.05174255 C-8.06232224 254.67807083 -7.43035431 255.30439911 -6.77923584 255.94970703 C-5.75603241 256.97898315 -5.75603241 256.97898315 -4.7121582 258.02905273 C-3.62105995 259.11489403 -3.62105995 259.11489403 -2.50791931 260.22267151 C-0.10047875 262.62129953 2.29955844 265.02718392 4.69921875 267.43359375 C6.37558758 269.10861477 8.05225316 270.78333886 9.72920227 272.45777893 C13.24875893 275.97438412 16.76466705 279.49458715 20.27807617 283.01733398 C24.75873355 287.5093243 29.24822645 291.99235862 33.74055767 296.47267056 C37.20939631 299.93423859 40.67340331 303.40061034 44.13602638 306.86839485 C45.78779526 308.5214891 47.4410267 310.1731234 49.0958004 311.82320976 C57.51926191 320.22805884 65.74000849 328.55014245 73 338 C73.91469632 339.13180356 74.83110121 340.26223071 75.75 341.390625 C87.30870427 356.07981167 97.50971385 373.03440395 103 391 C104.23004425 367.76583089 97.76497791 342.46292334 82.48828125 324.6796875 C78.8153341 320.72420595 74.99096407 316.94472147 71.08984375 313.21484375 C69 311 69 311 69 309 C68.34 309 67.68 309 67 309 C65.70944023 307.68720436 65.70944023 307.68720436 64.15011597 305.7772522 C58.9768204 299.70176743 53.26374816 294.17326281 47.59814453 288.56396484 C46.35038958 287.32469147 45.10289929 286.08515159 43.85565186 284.84536743 C41.18163765 282.1879943 38.5062457 279.53201883 35.82989883 276.87699509 C31.58812149 272.66802784 27.35245999 268.45294211 23.11813354 264.23648071 C22.40102207 263.52245571 21.6839106 262.8084307 20.94506848 262.07276857 C19.47930676 260.61331413 18.01355378 259.15385091 16.54780936 257.69437909 C6.70033027 247.88977042 -3.15158309 238.0896862 -13.01806641 228.30419922 C-19.68868154 221.68825005 -26.35020623 215.06329154 -33.00167763 208.42809451 C-36.51356413 204.925532 -40.02980707 201.42761878 -43.5573082 197.94077682 C-46.87938066 194.65688973 -50.1892775 191.361188 -53.49069977 188.05654526 C-54.69516471 186.85502056 -55.90384151 185.65769866 -57.11730576 184.46526337 C-76.51904799 165.3845818 -87.88505395 141.99159116 -88.24169922 114.52539062 C-88.31578828 86.96425827 -80.44682621 62.73138524 -60.89453125 42.86328125 C-59.93112945 41.90739868 -58.96640026 40.95285101 -58 40 C-57.26136719 39.25105469 -56.52273438 38.50210938 -55.76171875 37.73046875 C-38.33785139 21.09412082 -13.72010372 12.82504709 10 12 C9.36191406 11.38511719 8.72382812 10.77023438 8.06640625 10.13671875 C6.82697266 8.92435547 6.82697266 8.92435547 5.5625 7.6875 C4.73878906 6.88699219 3.91507813 6.08648437 3.06640625 5.26171875 C1 3 1 3 0 0 Z " fill="#060606" transform="translate(568,178)"/>
<path d="M0 0 C16.49934966 -0.00957708 32.99824092 0.01519704 49.49744892 0.0802784 C57.15926002 0.10970949 64.82079501 0.12812167 72.48266602 0.12011719 C79.16489099 0.11316463 85.84668821 0.12737233 92.5288083 0.16643608 C96.06338068 0.18637494 99.59728248 0.19609297 103.13189125 0.18042374 C107.08872711 0.16328084 111.04447599 0.19340518 115.0012207 0.22705078 C116.1585672 0.21482986 117.3159137 0.20260895 118.5083313 0.1900177 C126.73421783 0.31551603 132.14962547 2.53604432 139 7 C140.33166693 7.81700037 141.66361764 8.63353878 142.99609375 9.44921875 C144.14580363 10.19133918 145.29303651 10.93731411 146.4375 11.6875 C147.31438477 12.25307617 147.31438477 12.25307617 148.20898438 12.83007812 C152.77542972 15.79335466 152.77542972 15.79335466 154.72509766 17.58740234 C157.87408855 19.54276415 160.8595365 19.54727924 164.46484375 19.65234375 C165.20564682 19.68464584 165.94644989 19.71694794 166.70970154 19.75022888 C169.13950532 19.85036149 171.56922474 19.9274493 174 20 C174.82783997 20.02717102 175.65567993 20.05434204 176.50860596 20.08233643 C182.52584614 20.27749721 188.54371021 20.42495653 194.5625 20.5625 C196.36393877 20.60585143 198.16537113 20.64946992 199.96679688 20.69335938 C204.31113059 20.79863682 208.65553367 20.90035187 213 21 C212.27150667 25.19153475 211.51339985 29.37719382 210.75 33.5625 C210.44255859 35.33463867 210.44255859 35.33463867 210.12890625 37.14257812 C208.16101028 47.78710632 204.7311251 53.79526307 197.0625 61.375 C196.45470703 62.00277344 195.84691406 62.63054687 195.22070312 63.27734375 C189.68777273 68.8043055 189.68777273 68.8043055 185 69 C185.30744141 68.12988281 185.30744141 68.12988281 185.62109375 67.2421875 C186.02521484 66.07042969 186.02521484 66.07042969 186.4375 64.875 C186.70433594 64.10929687 186.97117187 63.34359375 187.24609375 62.5546875 C188.08173092 59.72304651 188.53551074 56.91313644 189 54 C183.43444905 53.91945155 177.87292361 53.89997695 172.30688477 53.93286133 C170.42077458 53.93591043 168.53456277 53.92335085 166.64868164 53.89379883 C152.9642863 53.69378773 143.97149166 55.61639423 133 64 C138.55542612 67.70361741 144.87214362 70.18692516 150.94799805 72.93188477 C152.59499929 73.67987562 154.23864268 74.43530897 155.87866211 75.19848633 C165.19410105 79.53100784 173.47958427 83.32164162 184 83 C180.7547038 88.36979423 176.72793359 92.50711014 172.25 96.875 C171.55261719 97.56335938 170.85523438 98.25171875 170.13671875 98.9609375 C168.42896657 100.64529582 166.71670557 102.32477617 165 104 C161.03379112 102.5643339 157.74739538 100.62288363 154.1875 98.375 C140.81625168 90.33432057 123.93038915 84.77420715 108.33203125 85 C106.61653636 85.00115886 104.90103821 84.99977517 103.18554688 84.99609375 C100.50316238 84.99168878 97.8242689 84.99977403 95.14233398 85.05126953 C78.32839899 85.34622361 78.32839899 85.34622361 72.32421875 79.875 C70.84531716 78.28404837 69.40124322 76.65975734 68 75 C63.33575236 69.80798253 59.4275986 67.67821374 52.50549316 67.27142334 C49.12358483 67.18822312 45.7541174 67.21785727 42.37255859 67.30712891 C39.76946439 67.37449627 37.17029196 67.38911572 34.56640625 67.39453125 C25.92912121 67.47306701 17.98702578 68.01842666 9.63769531 70.36572266 C6.85115158 71.03579306 4.85291157 71.30437191 2 71 C-0.195755 69.41897583 -0.195755 69.41897583 -2.4230957 67.17626953 C-3.68383659 65.92464523 -3.68383659 65.92464523 -4.970047 64.6477356 C-5.8629393 63.73531097 -6.7558316 62.82288635 -7.67578125 61.8828125 C-8.6009404 60.95532196 -9.52609955 60.02783142 -10.47929382 59.07223511 C-12.43449352 57.11087506 -14.38114672 55.14154159 -16.3215332 53.16552734 C-18.81258421 50.62911036 -21.31872692 48.10830257 -23.83070087 45.59262276 C-26.22256216 43.19527772 -28.60539166 40.78907717 -30.98828125 38.3828125 C-31.89129471 37.47443634 -32.79430817 36.56606018 -33.72468567 35.63015747 C-34.54941879 34.78943695 -35.37415192 33.94871643 -36.22387695 33.08251953 C-36.95492142 32.34083527 -37.68596588 31.599151 -38.43916321 30.83499146 C-40 29 -40 29 -40 27 C-23.88262168 17.54540981 -8.57790712 13.4558126 10 12 C9.278125 11.30132812 8.55625 10.60265625 7.8125 9.8828125 C6.884375 8.97273438 5.95625 8.06265625 5 7.125 C4.071875 6.22007812 3.14375 5.31515625 2.1875 4.3828125 C0 2 0 2 0 0 Z " fill="#060606" transform="translate(625,304)"/>
<path d="M0 0 C15.95209398 -0.30547263 31.9033817 -0.5337859 47.85768509 -0.67355824 C55.26794209 -0.74022187 62.67636859 -0.8308724 70.08544922 -0.98071289 C76.55335031 -1.11145522 83.01992471 -1.19442479 89.48911071 -1.22315043 C92.90638435 -1.23991112 96.31986755 -1.27844686 99.73590851 -1.37449074 C117.51096666 -1.81826054 128.9471182 0.114658 142.96018219 11.39168453 C147.99898086 15.3645775 152.34233369 18.61348843 158.95703125 18.65942383 C160.05756836 18.67906693 161.15810547 18.69871002 162.29199219 18.71894836 C164.03464355 18.71304939 164.03464355 18.71304939 165.8125 18.70703125 C167.02196289 18.72215256 168.23142578 18.73727386 169.47753906 18.75285339 C173.31855035 18.79564201 177.15877437 18.8045606 181 18.8125 C183.61330205 18.83565092 186.22658548 18.86101748 188.83984375 18.88867188 C195.22657005 18.95143744 201.61298979 18.9864414 208 19 C207.69190589 20.89809308 207.38147001 22.79580613 207.07006836 24.69335938 C206.8974498 25.75018921 206.72483124 26.80701904 206.54698181 27.89587402 C204.05647846 42.02949964 199.89668854 52.41948451 189 62 C188.48050781 62.47083008 187.96101562 62.94166016 187.42578125 63.42675781 C183.36926244 67 183.36926244 67 180 67 C180.268125 66.360625 180.53625 65.72125 180.8125 65.0625 C181.8092169 62.49201956 182.70851329 59.9246845 183.57421875 57.30859375 C183.84194092 56.50091553 184.10966309 55.6932373 184.38549805 54.86108398 C184.58828369 54.24692627 184.79106934 53.63276855 185 53 C179.37975324 52.96966388 173.76213177 52.98582611 168.14208984 53.04272461 C166.23555878 53.05576099 164.32890104 53.05669442 162.42236328 53.04467773 C150.10685294 52.97686816 142.1905821 53.6354684 132 61 C131.34 61 130.68 61 130 61 C130 61.66 130 62.32 130 63 C131.05513794 63.17438599 131.05513794 63.17438599 132.1315918 63.35229492 C135.24701417 64.05577739 137.9555552 65.11428076 140.89453125 66.36328125 C142.01537109 66.83830078 143.13621094 67.31332031 144.29101562 67.80273438 C145.45310547 68.30095703 146.61519531 68.79917969 147.8125 69.3125 C149.53823242 70.04243164 149.53823242 70.04243164 151.29882812 70.78710938 C156.10991417 72.83561191 160.86388341 74.88050051 165.48046875 77.33984375 C168.89298326 78.94952041 170.79358786 79.45591179 174.5 79.25 C175.3559375 79.21390625 176.211875 79.1778125 177.09375 79.140625 C177.7228125 79.09421875 178.351875 79.0478125 179 79 C177.36470886 82.96463026 174.63226521 85.84273534 171.75 88.9375 C171.28464844 89.44990234 170.81929687 89.96230469 170.33984375 90.49023438 C168.92287767 92.02625683 167.4764391 93.52111646 166 95 C165.49791016 95.50418457 164.99582031 96.00836914 164.47851562 96.52783203 C162.20795794 98.63194999 160.73303647 99.97878673 157.5703125 100.0703125 C154.14417066 98.64362122 151.03969966 96.79252351 147.875 94.875 C132.17429111 85.90522647 118.8697715 82.00954516 100.66943359 82.7890625 C91.97747682 82.93585897 87.64072977 81.22569136 81.28710938 75.23974609 C80.53236328 74.50062988 79.77761719 73.76151367 79 73 C75.62295537 69.88940506 73.26269559 69.59581829 68.703125 69.48828125 C67.49785156 69.45283203 66.29257812 69.41738281 65.05078125 69.38085938 C63.79652344 69.35830078 62.54226563 69.33574219 61.25 69.3125 C59.98027344 69.27833984 58.71054687 69.24417969 57.40234375 69.20898438 C54.26831726 69.12650999 51.13457045 69.05735516 48 69 C47.75330566 68.43949951 47.50661133 67.87899902 47.25244141 67.30151367 C41.33286678 53.90851131 35.07174552 41.55817615 26 30 C25.57879883 29.46310547 25.15759766 28.92621094 24.72363281 28.37304688 C18.59652064 20.66851926 11.85899417 13.67761783 4.7746582 6.84790039 C4.15421631 6.24453857 3.53377441 5.64117676 2.89453125 5.01953125 C2.33612549 4.48432861 1.77771973 3.94912598 1.20239258 3.39770508 C0 2 0 2 0 0 Z " fill="#080808" transform="translate(683,432)"/>
<path d="M0 0 C20.89129336 0.58519029 42.78238313 7.35091914 59 21 C56.83466219 36.81899568 42.86892013 51.55295793 31 61 C19.93645485 69 19.93645485 69 17 69 C27.30041631 88.18175474 37.68145112 107.33848431 48.92578125 125.98828125 C50 128 50 128 50 130 C50.96301025 129.96334229 51.92602051 129.92668457 52.91821289 129.88891602 C56.5165389 129.7615047 60.11466912 129.68160509 63.71459961 129.61547852 C65.26767583 129.58043458 66.82052371 129.53278143 68.37280273 129.47192383 C81.24871073 128.98003521 81.24871073 128.98003521 85.50634766 131.4597168 C87.27427995 133.21621146 88.61887767 134.93248705 90 137 C91.07041488 138.24043291 92.15257716 139.47089615 93.25 140.6875 C93.81589844 141.34621094 94.38179687 142.00492188 94.96484375 142.68359375 C96.55730806 144.4961299 98.17097774 146.27153267 99.81640625 148.03515625 C100.31043945 148.5660083 100.80447266 149.09686035 101.31347656 149.64379883 C102.29479783 150.69528297 103.27969822 151.74344091 104.26855469 152.7878418 C106.69914779 155.39827119 108.49802708 157.77847663 110 161 C98.7955305 161.30167579 87.5920316 161.53242097 76.38432312 161.67355824 C71.17939494 161.74131328 65.97725108 161.83313347 60.77392578 161.98071289 C55.74862531 162.12234524 50.72599514 162.19976456 45.69885254 162.23340416 C43.78476908 162.25736182 41.8708265 162.30415504 39.95788574 162.37449074 C25.36678011 162.88946894 25.36678011 162.88946894 21.42970657 159.74638939 C18.41017051 156.24281954 16.72695512 152.27293874 15 148 C14.05082891 146.24174901 13.08384515 144.4927741 12.0859375 142.76171875 C11.17973164 141.0716827 10.27614355 139.38024073 9.375 137.6875 C4.5569354 128.74552499 -0.48240278 119.95562255 -5.6315918 111.20092773 C-10.57774287 102.77276268 -15.37351909 94.26614455 -20.11865234 85.72338867 C-23.54804405 79.55655423 -27.06996139 73.45887186 -30.69946289 67.40722656 C-32 65 -32 65 -32 63 C-30.49609375 61.7734375 -30.49609375 61.7734375 -28.4375 60.375 C-9.59850667 46.46924042 -4.78892002 21.61702444 0 0 Z " fill="#070707" transform="translate(435,665)"/>
<path d="M0 0 C0.66 0 1.32 0 2 0 C2.22550537 0.74233887 2.45101074 1.48467773 2.68334961 2.24951172 C14.30240661 40.38250151 27.26906569 77.79110636 48.91015625 111.6171875 C51 115 51 115 51 117 C52.34408936 116.88217163 52.34408936 116.88217163 53.71533203 116.76196289 C81.03476086 114.67791994 81.03476086 114.67791994 87.99609375 120.05859375 C91.06414907 123.11722581 93.53733291 126.52020662 95.83642578 130.18408203 C97.32409247 132.50579097 99.10245754 134.44367632 101 136.4375 C104.19938112 140.14161809 107.12532256 144.0407373 110 148 C105.06082361 148.76951 100.16993096 149.24804165 95.17553711 149.49438477 C94.42647095 149.53308182 93.67740479 149.57177887 92.90563965 149.61164856 C86.0232566 149.95007515 79.1380186 150.15986152 72.24948788 150.32562351 C67.63520146 150.4395622 63.03225586 150.59869755 58.42407227 150.86547852 C28.70643651 152.54184783 28.70643651 152.54184783 21.01281738 146.75198364 C16.24914683 141.19701678 13.58758174 135.02296714 11.20307922 128.16691589 C9.19520996 122.88151743 6.26002863 118.15650928 3.375 113.3125 C2.29603759 111.40762704 1.22122501 109.50039177 0.15234375 107.58984375 C-4.36922605 99.5612392 -8.95125891 91.56728805 -13.52929688 83.57080078 C-14.985026 81.02617468 -16.43826195 78.48014236 -17.890625 75.93359375 C-18.86454559 74.22654097 -19.8385041 72.51950982 -20.8125 70.8125 C-21.29187012 69.97203125 -21.77124023 69.1315625 -22.26513672 68.265625 C-25.17693094 63.16784198 -28.10831456 58.08177274 -31.0546875 53.00390625 C-31.7476679 51.80820304 -32.44062047 50.61248369 -33.13354492 49.41674805 C-34.48223035 47.08958657 -35.83451782 44.76464259 -37.1887207 42.44067383 C-37.80062256 41.38517334 -38.41252441 40.32967285 -39.04296875 39.2421875 C-39.58977295 38.3022998 -40.13657715 37.36241211 -40.69995117 36.39404297 C-42 34 -42 34 -43 31 C-42.48727539 30.74420166 -41.97455078 30.48840332 -41.44628906 30.22485352 C-18.05375388 18.47361806 -18.05375388 18.47361806 0 0 Z " fill="#080808" transform="translate(693,678)"/>
<path d="M0 0 C4.06236402 -0.08729047 8.12448589 -0.14048992 12.1875 -0.1875 C13.91323242 -0.22520508 13.91323242 -0.22520508 15.67382812 -0.26367188 C17.34155273 -0.27817383 17.34155273 -0.27817383 19.04296875 -0.29296875 C20.06414795 -0.3086792 21.08532715 -0.32438965 22.13745117 -0.34057617 C25.4224149 0.05025747 27.30851735 1.1256904 30 3 C27.90835732 5.26001021 25.92411493 6.77871006 23.1875 8.1875 C22.54167969 8.53167969 21.89585937 8.87585938 21.23046875 9.23046875 C18.21755566 10.26995015 16.18093894 10.39222428 13 10 C10.51518797 8.59910939 8.38801792 7.24952354 6.125 5.5625 C5.53203125 5.14162109 4.9390625 4.72074219 4.328125 4.28710938 C2.85796402 3.22852572 1.42509802 2.11851165 0 1 C0 0.67 0 0.34 0 0 Z " fill="#F8F8F7" transform="translate(676,201)"/>
<path d="M0 0 C4.10410755 -0.05796132 8.20811016 -0.09358313 12.3125 -0.125 C13.47974609 -0.14175781 14.64699219 -0.15851563 15.84960938 -0.17578125 C16.96787109 -0.18222656 18.08613281 -0.18867188 19.23828125 -0.1953125 C20.26993408 -0.20578613 21.30158691 -0.21625977 22.36450195 -0.22705078 C25 0 25 0 28 2 C28 2.66 28 3.32 28 4 C26.28133783 5.0384211 24.54955402 6.05514635 22.8125 7.0625 C21.36810547 7.91521484 21.36810547 7.91521484 19.89453125 8.78515625 C16.51861526 10.20203867 15.4002463 10.25410319 12 9 C8.88671875 7.1875 8.88671875 7.1875 5.6875 5 C4.61886719 4.278125 3.55023437 3.55625 2.44921875 2.8125 C1.64097656 2.214375 0.83273437 1.61625 0 1 C0 0.67 0 0.34 0 0 Z " fill="#F9F8F7" transform="translate(740,328)"/>
<path d="M0 0 C3.93743833 -0.05797565 7.87476719 -0.09358789 11.8125 -0.125 C12.93205078 -0.14175781 14.05160156 -0.15851563 15.20507812 -0.17578125 C16.27822266 -0.18222656 17.35136719 -0.18867188 18.45703125 -0.1953125 C19.9416687 -0.21102295 19.9416687 -0.21102295 21.45629883 -0.22705078 C24 0 24 0 27 2 C27 2.66 27 3.32 27 4 C17.30539961 10.10656323 17.30539961 10.10656323 12.9375 9.75 C11.968125 9.1725 10.99875 8.595 10 8 C9.14792969 7.53078125 8.29585937 7.0615625 7.41796875 6.578125 C4.86262974 5.13426911 2.37424641 3.72672466 0 2 C0 1.34 0 0.68 0 0 Z " fill="#ECEBEA" transform="translate(793,455)"/>
<path d="M0 0 C0.99 0.33 1.98 0.66 3 1 C2.31267043 3.74931827 1.64439778 5.53418821 -0.69140625 7.22265625 C-2.43116325 8.20324656 -4.2137611 9.10688055 -6 10 C-4.34832443 6.4213696 -2.21713508 3.25179812 0 0 Z M-7 10 C-6.34 10.66 -5.68 11.32 -5 12 C-7.31 14.31 -9.62 16.62 -12 19 C-12.66 18.34 -13.32 17.68 -14 17 C-11.69 14.69 -9.38 12.38 -7 10 Z M-16 18 C-15.34 18.33 -14.68 18.66 -14 19 C-14.66 19.66 -15.32 20.32 -16 21 C-16 20.01 -16 19.02 -16 18 Z " fill="#F2F2F1" transform="translate(485,704)"/>
<path d="M0 0 C0.66 0.99 1.32 1.98 2 3 C1.39671875 3.50789062 0.7934375 4.01578125 0.171875 4.5390625 C-5.15459905 9.02566423 -5.15459905 9.02566423 -9.375 14.5 C-9.91125 15.325 -10.4475 16.15 -11 17 C-11.99 17 -12.98 17 -14 17 C-14.66 18.32 -15.32 19.64 -16 21 C-17.32 20.67 -18.64 20.34 -20 20 C-19.3709375 19.443125 -18.741875 18.88625 -18.09375 18.3125 C-8.24755371 9.88600757 -8.24755371 9.88600757 0 0 Z " fill="#F0EFEE" transform="translate(699,660)"/>
<path d="M0 0 C0.33 0 0.66 0 1 0 C0.29411026 7.05889737 -0.78213386 14.01204964 -2 21 C-3.65 21.33 -5.3 21.66 -7 22 C-4.84071065 14.60606981 -2.4695482 7.29582259 0 0 Z " fill="#EBEBEB" transform="translate(443,626)"/>
<path d="M0 0 C0.66 0.33 1.32 0.66 2 1 C1.01 1 0.02 1 -1 1 C-0.67 0.67 -0.34 0.34 0 0 Z M-5 4 C-4.34 4.33 -3.68 4.66 -3 5 C-4.32 6.32 -5.64 7.64 -7 9 C-7.66 8.67 -8.32 8.34 -9 8 C-7.68 6.68 -6.36 5.36 -5 4 Z M-11 9 C-10.34 9.33 -9.68 9.66 -9 10 C-10.61594832 12.04119788 -12.2856382 14.04072937 -14 16 C-14.66 16 -15.32 16 -16 16 C-16 16.66 -16 17.32 -16 18 C-17.32 18.33 -18.64 18.66 -20 19 C-19.06409496 17.8944811 -18.12620142 16.79064547 -17.1875 15.6875 C-16.66542969 15.07261719 -16.14335937 14.45773437 -15.60546875 13.82421875 C-14.12827531 12.14575321 -12.59960869 10.56117966 -11 9 Z " fill="#F2F2F1" transform="translate(252,595)"/>
<path d="M0 0 C0.33 0 0.66 0 1 0 C2.80789124 6.08108873 0.83657235 11.16862339 -1 17 C-1.99 17 -2.98 17 -4 17 C-3.52555245 14.35323911 -3.04568672 11.70766636 -2.5625 9.0625 C-2.42779297 8.30775391 -2.29308594 7.55300781 -2.15429688 6.77539062 C-1.11328125 1.11328125 -1.11328125 1.11328125 0 0 Z " fill="#0F0F0F" transform="translate(435,667)"/>
<path d="M0 0 C3 1 3 1 3 1 Z M-2 2 C-1.67 2.66 -1.34 3.32 -1 4 C-1.66 3.67 -2.32 3.34 -3 3 C-2.67 2.67 -2.34 2.34 -2 2 Z M-5 4 C-4.34 4.33 -3.68 4.66 -3 5 C-3.33 5.99 -3.66 6.98 -4 8 C-7.0625 9.1875 -7.0625 9.1875 -10 10 C-8.35 8.02 -6.7 6.04 -5 4 Z M-12 10 C-11.34 10.33 -10.68 10.66 -10 11 C-10.99 11.99 -11.98 12.98 -13 14 C-13 11 -13 11 -12 10 Z M-16 13 C-15.34 13.33 -14.68 13.66 -14 14 C-14.99 14.99 -15.98 15.98 -17 17 C-17 14 -17 14 -16 13 Z M-20 16 C-19.01 16.495 -19.01 16.495 -18 17 C-18.99 17.495 -18.99 17.495 -20 18 C-20 17.34 -20 16.68 -20 16 Z " fill="#F4F4F3" transform="translate(396,705)"/>
<path d="M0 0 C0.66 0 1.32 0 2 0 C4.21682402 5.95098874 6.36307418 11.86152818 8 18 C7.01 18 6.02 18 5 18 C4.16112944 15.56427941 3.32873471 13.12666783 2.5 10.6875 C2.14228516 9.65206055 2.14228516 9.65206055 1.77734375 8.59570312 C0.76791737 5.61068511 0 3.17341086 0 0 Z " fill="#F5F5F4" transform="translate(720,513)"/>
<path d="M0 0 C0.33 0 0.66 0 1 0 C1 4.95 1 9.9 1 15 C-0.60938465 12.58592302 -1.65490738 10.65955563 -2.6875 8 C-2.95949219 7.319375 -3.23148438 6.63875 -3.51171875 5.9375 C-4 4 -4 4 -3 1 C-2.34 1.33 -1.68 1.66 -1 2 C-0.67 1.34 -0.34 0.68 0 0 Z " fill="#DCDDDC" transform="translate(671,557)"/>
<path d="M0 0 C0.33 0.66 0.66 1.32 1 2 C0 5 0 5 -2.0625 6.1875 C-2.701875 6.455625 -3.34125 6.72375 -4 7 C-2.79618552 4.50638429 -1.54571278 2.31856917 0 0 Z M-7 9 C-6.34 9.66 -5.68 10.32 -5 11 C-5.66 11.66 -6.32 12.32 -7 13 C-7.804375 13.86625 -8.60875 14.7325 -9.4375 15.625 C-12 18 -12 18 -15 18 C-14.04270084 16.87411986 -13.08412105 15.7493285 -12.125 14.625 C-11.59132813 13.99851562 -11.05765625 13.37203125 -10.5078125 12.7265625 C-9.38567993 11.44163349 -8.20628025 10.20628025 -7 9 Z " fill="#EEEFEE" transform="translate(359,671)"/>
<path d="M0 0 C0.33 0.66 0.66 1.32 1 2 C-0.36328125 4.78515625 -0.36328125 4.78515625 -2.3125 8.0625 C-2.94800781 9.14660156 -3.58351563 10.23070312 -4.23828125 11.34765625 C-6 14 -6 14 -8 15 C-8.66 14.34 -9.32 13.68 -10 13 C-5.05 6.565 -5.05 6.565 0 0 Z " fill="#EBECEB" transform="translate(644,676)"/>
<path d="M0 0 C0 3 0 3 -1.5625 4.875 C-4.56838152 7.4955121 -7.7210772 9.72997652 -11 12 C-9.49650623 8.33213607 -7.36271208 6.31089607 -4.375 3.75 C-3.14910156 2.69039062 -3.14910156 2.69039062 -1.8984375 1.609375 C-1.27195313 1.07828125 -0.64546875 0.5471875 0 0 Z M-15 15 C-15 15.99 -15 16.98 -15 18 C-15.66 17.67 -16.32 17.34 -17 17 C-16.34 16.34 -15.68 15.68 -15 15 Z " fill="#191818" transform="translate(198,578)"/>
<path d="M0 0 C0.66 0.33 1.32 0.66 2 1 C1.67 2.65 1.34 4.3 1 6 C0.01 6 -0.98 6 -2 6 C-1.34 4.02 -0.68 2.04 0 0 Z M-3 6 C-2.67 6.66 -2.34 7.32 -2 8 C-2.9375 10.625 -2.9375 10.625 -4 13 C-4.66 12.67 -5.32 12.34 -6 12 C-4.125 7.125 -4.125 7.125 -3 6 Z M-7 12 C-7 15 -7 15 -7 15 Z " fill="#F1F1F1" transform="translate(427,665)"/>
<path d="M0 0 C0.66 0.33 1.32 0.66 2 1 C0.28571429 9.57142857 0.28571429 9.57142857 -4 13 C-4.33 12.34 -4.66 11.68 -5 11 C-4.2578125 9.16015625 -4.2578125 9.16015625 -3.125 7.0625 C-1.85064463 4.67865342 -0.86038352 2.58115056 0 0 Z " fill="#EEEEED" transform="translate(290,551)"/>
<path d="M0 0 C0.99 0.33 1.98 0.66 3 1 C2.01 2.485 2.01 2.485 1 4 C0.01 4 -0.98 4 -2 4 C-2.66 5.32 -3.32 6.64 -4 8 C-5.32 7.67 -6.64 7.34 -8 7 C-6.74057614 5.80040625 -5.46704714 4.61560557 -4.1875 3.4375 C-3.12595703 2.44556641 -3.12595703 2.44556641 -2.04296875 1.43359375 C-1.36878906 0.96050781 -0.69460938 0.48742187 0 0 Z " fill="#F5F5F5" transform="translate(687,673)"/>
<path d="M0 0 C0.66 0.33 1.32 0.66 2 1 C2 2.32 2 3.64 2 5 C-0.97 4.67 -3.94 4.34 -7 4 C-4.61426621 2.10786631 -2.92824652 0.97608217 0 0 Z " fill="#0F0E0F" transform="translate(170,484)"/>
<path d="M0 0 C0.66 0.33 1.32 0.66 2 1 C2 2.65 2 4.3 2 6 C0.02 6.33 -1.96 6.66 -4 7 C-2.92598892 4.08482708 -2.22189824 2.22189824 0 0 Z " fill="#F5F5F3" transform="translate(438,646)"/>
<path d="M0 0 C0.75 1.75 0.75 1.75 1 4 C-1.28375062 6.87583411 -3.64084842 8.56036361 -7 10 C-5.33248852 6.05860922 -2.77289351 3.2107188 0 0 Z " fill="#EAEAEA" transform="translate(612,717)"/>
<path d="M0 0 C0.66 0.33 1.32 0.66 2 1 C-0.64 3.97 -3.28 6.94 -6 10 C-6.33 9.01 -6.66 8.02 -7 7 C-4.69 4.69 -2.38 2.38 0 0 Z " fill="#F3F2F1" transform="translate(823,363)"/>
<path d="M0 0 C-1.14018002 3.42054006 -1.92458518 4.2426201 -5 6 C-7.13671875 5.578125 -7.13671875 5.578125 -9 5 C-7.87926138 4.16094435 -6.75325453 3.32892169 -5.625 2.5 C-4.99851562 2.0359375 -4.37203125 1.571875 -3.7265625 1.09375 C-2 0 -2 0 0 0 Z M-11 6 C-9 7 -9 7 -9 7 Z " fill="#F1F1EF" transform="translate(468,725)"/>
<path d="M0 0 C0.33 0.66 0.66 1.32 1 2 C0.22265625 3.9453125 0.22265625 3.9453125 -0.9375 6.125 C-1.31777344 6.84945312 -1.69804688 7.57390625 -2.08984375 8.3203125 C-2.39019531 8.87460937 -2.69054687 9.42890625 -3 10 C-3.99 10 -4.98 10 -6 10 C-4.34832443 6.4213696 -2.21713508 3.25179812 0 0 Z " fill="#DFDFDE" transform="translate(573,681)"/>
<path d="M0 0 C2.625 -0.1875 2.625 -0.1875 5 0 C5 0.33 5 0.66 5 1 C7.97 1.495 7.97 1.495 11 2 C11 2.33 11 2.66 11 3 C6.71 3 2.42 3 -2 3 C-1.34 2.01 -0.68 1.02 0 0 Z " fill="#1A1A19" transform="translate(576,242)"/>
<path d="M0 0 C0.99 0 1.98 0 3 0 C3.66 2.64 4.32 5.28 5 8 C4.34 8 3.68 8 3 8 C0 2.25 0 2.25 0 0 Z " fill="#0E0E0E" transform="translate(585,785)"/>
<path d="M0 0 C2.08901197 3.39464446 2.34361606 6.04841529 2 10 C1.34 10.66 0.68 11.32 0 12 C-0.19573608 10.56359829 -0.38127816 9.12580496 -0.5625 7.6875 C-0.66691406 6.88699219 -0.77132812 6.08648438 -0.87890625 5.26171875 C-1 3 -1 3 0 0 Z " fill="#EBEBEA" transform="translate(728,533)"/>
<path d="M0 0 C0.66 0.66 1.32 1.32 2 2 C1.625 4.625 1.625 4.625 1 7 C0.01 7.33 -0.98 7.66 -2 8 C-1.125 1.125 -1.125 1.125 0 0 Z " fill="#0E0E0E" transform="translate(442,641)"/>
<path d="M0 0 C0.66 0 1.32 0 2 0 C6 5.29411765 6 5.29411765 6 9 C5.34 9 4.68 9 4 9 C0 2.25 0 2.25 0 0 Z " fill="#F3F3F2" transform="translate(656,537)"/>
<path d="M0 0 C2.31 0.66 4.62 1.32 7 2 C7 2.99 7 3.98 7 5 C4.0625 4.1875 4.0625 4.1875 1 3 C0.67 2.01 0.34 1.02 0 0 Z " fill="#0C0C0C" transform="translate(251,474)"/>
<path d="M0 0 C0.66 0.99 1.32 1.98 2 3 C0.35 4.65 -1.3 6.3 -3 8 C-3.33 7.34 -3.66 6.68 -4 6 C-2.68 4.02 -1.36 2.04 0 0 Z " fill="#EAE9E9" transform="translate(544,261)"/>
<path d="M0 0 C0.33 0.66 0.66 1.32 1 2 C0.34 1.67 -0.32 1.34 -1 1 C-0.67 0.67 -0.34 0.34 0 0 Z M-3 2 C-2.34 2.33 -1.68 2.66 -1 3 C-1.66 4.65 -2.32 6.3 -3 8 C-3.66 8 -4.32 8 -5 8 C-5.33 6.68 -5.66 5.36 -6 4 C-5.01 3.34 -4.02 2.68 -3 2 Z " fill="#121111" transform="translate(409,724)"/>
<path d="M0 0 C3.16115776 1.36983503 3.9927092 1.9890638 6 5 C5.67 5.99 5.34 6.98 5 8 C4.16382818 6.8562364 3.33113541 5.70992861 2.5 4.5625 C2.0359375 3.92441406 1.571875 3.28632812 1.09375 2.62890625 C0 1 0 1 0 0 Z " fill="#141414" transform="translate(174,712)"/>
<path d="M0 0 C0.93065133 2.60582371 1.14917407 3.64198224 0.0625 6.25 C-0.4634375 7.11625 -0.4634375 7.11625 -1 8 C-1.66 7.01 -2.32 6.02 -3 5 C-2.01 3.35 -1.02 1.7 0 0 Z " fill="#0E0E0D" transform="translate(726,602)"/>
</svg>
